<mxfile host="65bd71144e">
    <diagram id="qAGmfrXsHL9GOHa_IX8D" name="Page-1">
        <mxGraphModel dx="322" dy="691" grid="1" gridSize="10" guides="1" tooltips="1" connect="1" arrows="1" fold="1" page="1" pageScale="1" pageWidth="1600" pageHeight="900" background="#FFFFFF" math="0" shadow="0">
            <root>
                <mxCell id="0"/>
                <mxCell id="1" parent="0"/>
                <mxCell id="2" value="" style="endArrow=none;html=1;strokeWidth=2;" parent="1" edge="1">
                    <mxGeometry width="50" height="50" relative="1" as="geometry">
                        <mxPoint x="120" y="449" as="sourcePoint"/>
                        <mxPoint x="1480" y="449" as="targetPoint"/>
                    </mxGeometry>
                </mxCell>
                <mxCell id="3" value="" style="endArrow=none;html=1;strokeWidth=2;" parent="1" edge="1">
                    <mxGeometry width="50" height="50" relative="1" as="geometry">
                        <mxPoint x="798" y="822" as="sourcePoint"/>
                        <mxPoint x="798" y="79" as="targetPoint"/>
                    </mxGeometry>
                </mxCell>
                <mxCell id="4" value="&lt;p&gt;&lt;font style=&quot;font-size: 100px;&quot; face=&quot;Times New Roman&quot;&gt;教程&lt;/font&gt;&lt;/p&gt;" style="text;html=1;strokeColor=none;fillColor=none;align=center;verticalAlign=middle;whiteSpace=wrap;rounded=0;fontFamily=Verdana;" parent="1" vertex="1">
                    <mxGeometry x="510" y="250" width="210" height="120" as="geometry"/>
                </mxCell>
                <mxCell id="5" value="操作指南" style="text;html=1;strokeColor=none;fillColor=none;align=center;verticalAlign=middle;rounded=0;fontFamily=Times New Roman;fontSize=100;whiteSpace=wrap;labelPosition=center;verticalLabelPosition=middle;" parent="1" vertex="1">
                    <mxGeometry x="880" y="250" width="410" height="120" as="geometry"/>
                </mxCell>
                <mxCell id="6" value="解释" style="text;html=1;strokeColor=none;fillColor=none;align=center;verticalAlign=middle;whiteSpace=wrap;rounded=0;fontFamily=Times New Roman;fontSize=100;" parent="1" vertex="1">
                    <mxGeometry x="510" y="530" width="210" height="120" as="geometry"/>
                </mxCell>
                <mxCell id="7" value="参考" style="text;html=1;strokeColor=none;fillColor=none;align=center;verticalAlign=middle;whiteSpace=wrap;rounded=0;fontFamily=Times New Roman;fontSize=100;" parent="1" vertex="1">
                    <mxGeometry x="880" y="530" width="210" height="120" as="geometry"/>
                </mxCell>
                <mxCell id="9" value="&lt;font style=&quot;font-size: 40px;&quot;&gt;获取知识&lt;/font&gt;" style="text;html=1;strokeColor=none;fillColor=none;align=center;verticalAlign=middle;whiteSpace=wrap;rounded=0;fontFamily=Times New Roman;fontSize=50;" parent="1" vertex="1">
                    <mxGeometry x="110" y="390" width="170" height="60" as="geometry"/>
                </mxCell>
                <mxCell id="10" value="&lt;font style=&quot;font-size: 40px;&quot;&gt;实践应用&lt;/font&gt;" style="text;html=1;strokeColor=none;fillColor=none;align=center;verticalAlign=middle;whiteSpace=wrap;rounded=0;fontFamily=Times New Roman;fontSize=50;" parent="1" vertex="1">
                    <mxGeometry x="1310" y="390" width="170" height="60" as="geometry"/>
                </mxCell>
                <mxCell id="11" value="&lt;font style=&quot;font-size: 40px;&quot;&gt;认知&lt;/font&gt;" style="text;html=1;strokeColor=none;fillColor=none;align=center;verticalAlign=middle;whiteSpace=wrap;rounded=0;fontFamily=Times New Roman;fontSize=50;" parent="1" vertex="1">
                    <mxGeometry x="758" y="830" width="85" height="60" as="geometry"/>
                </mxCell>
                <mxCell id="12" value="&lt;font style=&quot;font-size: 40px;&quot;&gt;行动&lt;/font&gt;" style="text;html=1;strokeColor=none;fillColor=none;align=center;verticalAlign=middle;whiteSpace=wrap;rounded=0;fontFamily=Times New Roman;fontSize=50;" parent="1" vertex="1">
                    <mxGeometry x="758" y="10" width="85" height="60" as="geometry"/>
                </mxCell>
                <mxCell id="13" value="Tutorials" style="text;html=1;strokeColor=none;fillColor=none;align=center;verticalAlign=middle;whiteSpace=wrap;rounded=0;fontFamily=Times New Roman;fontSize=40;" parent="1" vertex="1">
                    <mxGeometry x="560" y="200" width="160" height="50" as="geometry"/>
                </mxCell>
                <mxCell id="14" value="HOW-TO Guides" style="text;html=1;strokeColor=none;fillColor=none;align=center;verticalAlign=middle;whiteSpace=wrap;rounded=0;fontFamily=Times New Roman;fontSize=40;horizontal=1;labelPosition=center;verticalLabelPosition=middle;" parent="1" vertex="1">
                    <mxGeometry x="880" y="200" width="300" height="50" as="geometry"/>
                </mxCell>
                <mxCell id="15" value="Explanation" style="text;html=1;strokeColor=none;fillColor=none;align=center;verticalAlign=middle;whiteSpace=wrap;rounded=0;fontFamily=Times New Roman;fontSize=40;" parent="1" vertex="1">
                    <mxGeometry x="510" y="650" width="210" height="50" as="geometry"/>
                </mxCell>
                <mxCell id="16" value="Reference" style="text;html=1;strokeColor=none;fillColor=none;align=center;verticalAlign=middle;whiteSpace=wrap;rounded=0;fontFamily=Times New Roman;fontSize=40;" parent="1" vertex="1">
                    <mxGeometry x="880" y="650" width="180" height="50" as="geometry"/>
                </mxCell>
                <mxCell id="17" value="&lt;font color=&quot;#ef9a30&quot;&gt;学习&lt;/font&gt;" style="text;html=1;strokeColor=none;fillColor=none;align=center;verticalAlign=middle;whiteSpace=wrap;rounded=0;fontFamily=Times New Roman;fontSize=40;" parent="1" vertex="1">
                    <mxGeometry x="110" y="70" width="90" height="50" as="geometry"/>
                </mxCell>
                <mxCell id="18" value="&lt;font color=&quot;#ef9a30&quot;&gt;目标&lt;/font&gt;" style="text;html=1;strokeColor=none;fillColor=none;align=center;verticalAlign=middle;whiteSpace=wrap;rounded=0;fontFamily=Times New Roman;fontSize=40;" parent="1" vertex="1">
                    <mxGeometry x="1390" y="70" width="90" height="50" as="geometry"/>
                </mxCell>
                <mxCell id="19" value="&lt;font color=&quot;#ef9a30&quot;&gt;理解&lt;/font&gt;&lt;span style=&quot;color: rgba(0, 0, 0, 0); font-family: monospace; font-size: 0px; text-align: start;&quot;&gt;%3CmxGraphModel%3E%3Croot%3E%3CmxCell%20id%3D%220%22%2F%3E%3CmxCell%20id%3D%221%22%20parent%3D%220%22%2F%3E%3CmxCell%20id%3D%222%22%20value%3D%22%26lt%3Bfont%20color%3D%26quot%3B%23ef9a30%26quot%3B%26gt%3B%E7%9B%AE%E6%A0%87%26lt%3B%2Ffont%26gt%3B%22%20style%3D%22text%3Bhtml%3D1%3BstrokeColor%3Dnone%3BfillColor%3Dnone%3Balign%3Dcenter%3BverticalAlign%3Dmiddle%3BwhiteSpace%3Dwrap%3Brounded%3D0%3BfontFamily%3DTimes%20New%20Roman%3BfontSize%3D40%3B%22%20vertex%3D%221%22%20parent%3D%221%22%3E%3CmxGeometry%20x%3D%22880%22%20y%3D%22280%22%20width%3D%2290%22%20height%3D%2250%22%20as%3D%22geometry%22%2F%3E%3C%2FmxCell%3E%3C%2Froot%3E%3C%2FmxGraphModel%3E&lt;/span&gt;" style="text;html=1;strokeColor=none;fillColor=none;align=center;verticalAlign=middle;whiteSpace=wrap;rounded=0;fontFamily=Times New Roman;fontSize=40;" parent="1" vertex="1">
                    <mxGeometry x="110" y="780" width="90" height="50" as="geometry"/>
                </mxCell>
                <mxCell id="20" value="&lt;font color=&quot;#ef9a30&quot;&gt;信息&lt;/font&gt;" style="text;html=1;strokeColor=none;fillColor=none;align=center;verticalAlign=middle;whiteSpace=wrap;rounded=0;fontFamily=Times New Roman;fontSize=40;" parent="1" vertex="1">
                    <mxGeometry x="1390" y="780" width="90" height="50" as="geometry"/>
                </mxCell>
            </root>
        </mxGraphModel>
    </diagram>
</mxfile>